<svg width="36" height="35" viewBox="0 0 36 35" fill="none" xmlns="http://www.w3.org/2000/svg">
<circle cx="18" cy="17.5" r="17.5" fill="#AD343E"/>
<path d="M25.7487 13.7333C25.2249 13.9661 24.672 14.1116 24.09 14.1989C24.672 13.8497 25.1376 13.2968 25.3413 12.6275C24.7884 12.9476 24.1773 13.1804 23.5081 13.3259C22.9843 12.773 22.2277 12.4238 21.4129 12.4238C19.8416 12.4238 18.5613 13.7042 18.5613 15.2755C18.5613 15.5083 18.5904 15.712 18.6486 15.9157C16.2916 15.7993 14.1673 14.6644 12.7415 12.9185C12.5087 13.355 12.3632 13.8206 12.3632 14.3443C12.3632 15.3337 12.8579 16.2067 13.6436 16.7304C13.178 16.7013 12.7415 16.585 12.3341 16.3813V16.4104C12.3341 17.8071 13.3235 18.971 14.6329 19.2329C14.4001 19.2911 14.1383 19.3202 13.8764 19.3202C13.7018 19.3202 13.4981 19.2911 13.3235 19.262C13.7018 20.3969 14.7493 21.2408 16.0006 21.2408C15.0112 21.9973 13.7891 22.4629 12.4505 22.4629C12.2177 22.4629 11.9849 22.4629 11.7812 22.4338C13.0616 23.2486 14.5456 23.7141 16.1752 23.7141C21.442 23.7141 24.3228 19.3493 24.3228 15.5665C24.3228 15.4501 24.3228 15.3046 24.3228 15.1882C24.8757 14.8099 25.3704 14.3152 25.7487 13.7333Z" fill="white"/>
</svg>
