<svg width="36" height="35" viewBox="0 0 36 35" fill="none" xmlns="http://www.w3.org/2000/svg">
<circle cx="18" cy="17.5" r="17.5" fill="#AD343E"/>
<path d="M17.999 10.5639C20.2599 10.5639 20.5276 10.5724 21.4208 10.6131C21.9578 10.6197 22.4897 10.7183 22.9933 10.9046C23.3586 11.0455 23.6903 11.2613 23.9671 11.5381C24.244 11.8149 24.4597 12.1466 24.6006 12.5119C24.787 13.0156 24.8856 13.5475 24.8921 14.0845C24.9325 14.9776 24.9413 15.2453 24.9413 17.5062C24.9413 19.7671 24.9329 20.0349 24.8921 20.928C24.8856 21.465 24.787 21.9969 24.6006 22.5006C24.4597 22.8658 24.244 23.1976 23.9671 23.4744C23.6903 23.7512 23.3586 23.967 22.9933 24.1078C22.4897 24.2942 21.9578 24.3928 21.4208 24.3994C20.528 24.4397 20.2603 24.4486 17.999 24.4486C15.7377 24.4486 15.47 24.4401 14.5772 24.3994C14.0402 24.3928 13.5083 24.2942 13.0046 24.1078C12.6394 23.967 12.3077 23.7512 12.0308 23.4744C11.754 23.1976 11.5382 22.8658 11.3974 22.5006C11.211 21.9969 11.1124 21.465 11.1058 20.928C11.0655 20.0349 11.0567 19.7671 11.0567 17.5062C11.0567 15.2453 11.0651 14.9776 11.1058 14.0845C11.1124 13.5475 11.211 13.0156 11.3974 12.5119C11.5382 12.1466 11.754 11.8149 12.0308 11.5381C12.3077 11.2613 12.6394 11.0455 13.0046 10.9046C13.5083 10.7183 14.0402 10.6197 14.5772 10.6131C15.4704 10.5728 15.7381 10.5639 17.999 10.5639ZM17.999 9.03809C15.7006 9.03809 15.4111 9.04776 14.5079 9.08889C13.8051 9.10287 13.1097 9.23594 12.4514 9.48244C11.8867 9.69521 11.3752 10.0286 10.9526 10.4595C10.5214 10.8822 10.1877 11.394 9.9748 11.9591C9.7283 12.6174 9.59523 13.3127 9.58125 14.0155C9.54093 14.9179 9.53125 15.2074 9.53125 17.5058C9.53125 19.8042 9.54093 20.0937 9.58206 20.997C9.59604 21.6998 9.72911 22.3951 9.9756 23.0534C10.1883 23.6184 10.5217 24.1302 10.9526 24.553C11.3754 24.9839 11.8872 25.3174 12.4522 25.53C13.1105 25.7765 13.8059 25.9096 14.5087 25.9236C15.4119 25.9639 15.7002 25.9744 17.9998 25.9744C20.2994 25.9744 20.5877 25.9647 21.4909 25.9236C22.1937 25.9096 22.8891 25.7765 23.5474 25.53C24.1097 25.3121 24.6204 24.9791 25.0467 24.5525C25.473 24.1259 25.8056 23.6151 26.0232 23.0526C26.2697 22.3943 26.4028 21.699 26.4167 20.9962C26.4571 20.0937 26.4667 19.8042 26.4667 17.5058C26.4667 15.2074 26.4571 14.9179 26.4159 14.0147C26.4019 13.3119 26.2689 12.6166 26.0224 11.9582C25.8097 11.3932 25.4763 10.8815 25.0454 10.4587C24.6225 10.0277 24.1108 9.6943 23.5458 9.48163C22.8875 9.23513 22.1921 9.10206 21.4893 9.08809C20.5869 9.04776 20.2974 9.03809 17.999 9.03809Z" fill="white"/>
<path d="M17.9968 13.1621C17.1368 13.1621 16.2961 13.4171 15.581 13.8949C14.8659 14.3728 14.3086 15.0519 13.9794 15.8464C13.6503 16.641 13.5642 17.5153 13.732 18.3588C13.8998 19.2023 14.3139 19.9771 14.9221 20.5853C15.5302 21.1934 16.305 21.6075 17.1485 21.7753C17.992 21.9431 18.8663 21.857 19.6609 21.5279C20.4554 21.1988 21.1346 20.6414 21.6124 19.9263C22.0902 19.2112 22.3452 18.3705 22.3452 17.5105C22.3452 16.3572 21.8871 15.2512 21.0716 14.4357C20.2561 13.6202 19.1501 13.1621 17.9968 13.1621ZM17.9968 20.3331C17.4386 20.3331 16.8929 20.1675 16.4287 19.8574C15.9645 19.5472 15.6027 19.1064 15.3891 18.5907C15.1755 18.0749 15.1196 17.5074 15.2285 16.9598C15.3374 16.4123 15.6062 15.9094 16.001 15.5146C16.3957 15.1199 16.8986 14.8511 17.4462 14.7422C17.9937 14.6332 18.5612 14.6891 19.077 14.9028C19.5927 15.1164 20.0336 15.4782 20.3437 15.9424C20.6539 16.4065 20.8194 16.9522 20.8194 17.5105C20.8194 18.2591 20.522 18.977 19.9927 19.5064C19.4634 20.0357 18.7454 20.3331 17.9968 20.3331Z" fill="white"/>
<path d="M22.5318 14.0039C23.0929 14.0039 23.5479 13.549 23.5479 12.9878C23.5479 12.4266 23.0929 11.9717 22.5318 11.9717C21.9706 11.9717 21.5156 12.4266 21.5156 12.9878C21.5156 13.549 21.9706 14.0039 22.5318 14.0039Z" fill="white"/>
</svg>
