<svg width="36" height="35" viewBox="0 0 36 35" fill="none" xmlns="http://www.w3.org/2000/svg">
<circle cx="18" cy="17.5" r="17.5" fill="#AD343E"/>
<path fill-rule="evenodd" clip-rule="evenodd" d="M18.7796 9.03809C14.2909 9.03809 10.6797 12.6493 10.6797 17.138C10.6797 20.7154 13.0084 23.7528 16.2146 24.8328C16.6196 24.9003 16.7546 24.6641 16.7546 24.4278C16.7546 24.2253 16.7546 23.7191 16.7546 23.0441C14.4934 23.5504 14.0209 21.9641 14.0209 21.9641C13.6496 21.0191 13.1096 20.7829 13.1096 20.7829C12.3672 20.2767 13.1771 20.2767 13.1771 20.2767C13.9871 20.3442 14.4259 21.1204 14.4259 21.1204C15.1346 22.3691 16.3158 21.9979 16.7883 21.7954C16.8558 21.2554 17.0583 20.9179 17.2946 20.7154C15.5059 20.5129 13.6159 19.8042 13.6159 16.6992C13.6159 15.8217 13.9196 15.0792 14.4596 14.5392C14.3921 14.3367 14.0884 13.5268 14.5271 12.3793C14.5271 12.3793 15.2021 12.1768 16.7546 13.223C17.3958 13.0543 18.1046 12.953 18.7796 12.953C19.4545 12.953 20.1633 13.0543 20.8045 13.223C22.357 12.1768 23.032 12.3793 23.032 12.3793C23.4707 13.493 23.2007 14.303 23.0995 14.5392C23.6057 15.113 23.9432 15.8217 23.9432 16.6992C23.9432 19.8042 22.0533 20.4791 20.2308 20.6816C20.5345 20.9179 20.7708 21.4241 20.7708 22.1666C20.7708 23.2466 20.7708 24.1241 20.7708 24.3941C20.7708 24.5966 20.9058 24.8666 21.3445 24.7991C24.5507 23.7528 26.8794 20.7154 26.8794 17.138C26.8794 12.6493 23.2682 9.03809 18.7796 9.03809Z" fill="white"/>
</svg>
