<svg width="25" height="24" viewBox="0 0 25 24" fill="none" xmlns="http://www.w3.org/2000/svg">
<path d="M23.6577 19.7083L18.605 14.7643C17.6545 13.8343 16.1352 13.8341 15.1843 14.7637C14.203 15.7232 14.203 17.3021 15.1843 18.2616L20.1633 23.1297C20.7187 23.6727 21.6328 23.6727 22.1882 23.1297L23.6577 21.6929C24.2132 21.1451 24.2132 20.2465 23.6577 19.7083Z" fill="#FF9C08"/>
<path d="M12.6523 14.1614C13.1503 14.6483 13.9462 14.6483 14.4443 14.1614C14.9584 13.6586 14.9584 12.8313 14.4443 12.3286L14.2434 12.1323C13.6959 11.5969 13.638 10.7489 13.9565 10.0525C15.1567 7.42849 14.659 4.23962 12.4572 2.08676C9.61151 -0.695587 4.98668 -0.695587 2.1361 2.08676C-0.714489 4.86911 -0.709574 9.39102 2.1361 12.1782C4.34171 14.3347 7.61054 14.8192 10.2969 13.6381C11.0054 13.3266 11.8572 13.384 12.4106 13.925L12.6523 14.1614ZM3.55156 10.775C1.48734 8.75671 1.48734 5.4842 3.55156 3.47073C5.61578 1.45244 8.96276 1.45244 11.0221 3.47073C13.0863 5.48901 13.0863 8.76151 11.0221 10.775C8.96276 12.7933 5.61578 12.7933 3.55156 10.775Z" fill="#FF9C08"/>
</svg>
